<svg width="6" height="10" viewBox="0 0 6 10" fill="none" xmlns="http://www.w3.org/2000/svg">
<path d="M0.916693 8.33332C0.916059 8.22365 0.93708 8.11493 0.97855 8.0134C1.02002 7.91187 1.08112 7.81952 1.15836 7.74166L3.91669 4.99999L1.26669 2.24999C1.11148 2.09385 1.02437 1.88264 1.02437 1.66249C1.02437 1.44233 1.11148 1.23113 1.26669 1.07499C1.34416 0.996883 1.43633 0.934888 1.53788 0.892581C1.63943 0.850273 1.74835 0.828491 1.85836 0.828491C1.96837 0.828491 2.07729 0.850273 2.17884 0.892581C2.28039 0.934888 2.37256 0.996883 2.45003 1.07499L5.66669 4.40832C5.81938 4.5641 5.90491 4.77353 5.90491 4.99166C5.90491 5.20978 5.81938 5.41922 5.66669 5.57499L2.33336 8.90832C2.25589 8.98643 2.16372 9.04843 2.06217 9.09073C1.96062 9.13304 1.8517 9.15482 1.74169 9.15482C1.63168 9.15482 1.52276 9.13304 1.42121 9.09073C1.31966 9.04843 1.2275 8.98643 1.15003 8.90832C1.00113 8.75384 0.917547 8.54788 0.916693 8.33332Z" fill="white"/>
</svg>
