<svg width="14" height="9" viewBox="0 0 14 9" fill="none" xmlns="http://www.w3.org/2000/svg">
<path d="M2.00008 0.874979C2.16458 0.874027 2.32766 0.90556 2.47996 0.967765C2.63226 1.02997 2.77078 1.12163 2.88758 1.23748L7.00008 5.37498L11.1251 1.39998C11.3593 1.16716 11.6761 1.03649 12.0063 1.03649C12.3366 1.03649 12.6534 1.16716 12.8876 1.39998C13.0047 1.51618 13.0977 1.65443 13.1612 1.80676C13.2247 1.95908 13.2573 2.12246 13.2573 2.28748C13.2573 2.45249 13.2247 2.61588 13.1612 2.7682C13.0977 2.92052 13.0047 3.05877 12.8876 3.17498L7.88758 7.99998C7.65392 8.22901 7.33977 8.3573 7.01258 8.3573C6.68539 8.3573 6.37124 8.22901 6.13758 7.99998L1.13758 2.99998C1.02042 2.88377 0.927423 2.74552 0.863962 2.5932C0.800501 2.44088 0.767829 2.27749 0.767829 2.11248C0.767829 1.94746 0.800501 1.78408 0.863962 1.63176C0.927423 1.47943 1.02042 1.34118 1.13758 1.22498C1.3693 1.00163 1.67824 0.87626 2.00008 0.874979Z" fill="white"/>
</svg>
