<svg width="19" height="19" viewBox="0 0 19 19" fill="none" xmlns="http://www.w3.org/2000/svg">
<path d="M2.56038 18.5605C2.27748 18.8337 1.89857 18.9849 1.50528 18.9815C1.11198 18.9781 0.735763 18.8203 0.457651 18.5422C0.179539 18.2641 0.0217849 17.8879 0.0183673 17.4946C0.0149496 17.1013 0.166142 16.7224 0.439379 16.4395L6.43938 10.4395C6.57775 10.2962 6.74327 10.182 6.92627 10.1033C7.10928 10.0247 7.30611 9.98335 7.50528 9.98162C7.70445 9.97989 7.90197 10.0178 8.08631 10.0933C8.27065 10.1687 8.43813 10.2801 8.57897 10.4209C8.71981 10.5617 8.83119 10.7292 8.90661 10.9136C8.98203 11.0979 9.01999 11.2954 9.01826 11.4946C9.01652 11.6938 8.97514 11.8906 8.89653 12.0736C8.81792 12.2566 8.70364 12.4221 8.56038 12.5605L2.56038 18.5605Z" fill="white"/>
<path d="M1.5 19C1.10218 19 0.720645 18.842 0.43934 18.5607C0.158036 18.2794 0 17.8978 0 17.5C0 17.1022 0.158036 16.7206 0.43934 16.4393C0.720645 16.158 1.10218 16 1.5 16H7.5C7.89782 16 8.27936 16.158 8.56066 16.4393C8.84196 16.7206 9 17.1022 9 17.5C9 17.8978 8.84196 18.2794 8.56066 18.5607C8.27936 18.842 7.89782 19 7.5 19H1.5Z" fill="white"/>
<path d="M3 17.5C3 17.8978 2.84196 18.2794 2.56066 18.5607C2.27936 18.842 1.89782 19 1.5 19C1.10218 19 0.720645 18.842 0.43934 18.5607C0.158036 18.2794 0 17.8978 0 17.5V11.5C0 11.1022 0.158036 10.7206 0.43934 10.4393C0.720645 10.158 1.10218 10 1.5 10C1.89782 10 2.27936 10.158 2.56066 10.4393C2.84196 10.7206 3 11.1022 3 11.5V17.5ZM11.5605 9.5605C11.2776 9.83374 10.8987 9.98493 10.5054 9.98151C10.1121 9.97809 9.73588 9.82034 9.45777 9.54223C9.17966 9.26412 9.02191 8.8879 9.01849 8.4946C9.01507 8.10131 9.16626 7.7224 9.4395 7.4395L15.4395 1.4395C15.5779 1.29623 15.7434 1.18196 15.9264 1.10335C16.1094 1.02473 16.3062 0.983355 16.5054 0.981624C16.7046 0.979893 16.9021 1.01785 17.0864 1.09327C17.2708 1.16869 17.4383 1.28007 17.5791 1.42091C17.7199 1.56175 17.8313 1.72922 17.9067 1.91357C17.9822 2.09791 18.0201 2.29543 18.0184 2.4946C18.0166 2.69377 17.9753 2.8906 17.8967 3.07361C17.818 3.25661 17.7038 3.42213 17.5605 3.5605L11.5605 9.5605Z" fill="white"/>
<path d="M18 8.5C18 8.89782 17.842 9.27936 17.5607 9.56066C17.2794 9.84196 16.8978 10 16.5 10C16.1022 10 15.7206 9.84196 15.4393 9.56066C15.158 9.27936 15 8.89782 15 8.5V2.5C15 2.10218 15.158 1.72064 15.4393 1.43934C15.7206 1.15804 16.1022 1 16.5 1C16.8978 1 17.2794 1.15804 17.5607 1.43934C17.842 1.72064 18 2.10218 18 2.5V8.5Z" fill="white"/>
<path d="M10.5 4C10.1022 4 9.72064 3.84196 9.43934 3.56066C9.15804 3.27936 9 2.89782 9 2.5C9 2.10218 9.15804 1.72064 9.43934 1.43934C9.72064 1.15804 10.1022 1 10.5 1H16.5C16.8978 1 17.2794 1.15804 17.5607 1.43934C17.842 1.72064 18 2.10218 18 2.5C18 2.89782 17.842 3.27936 17.5607 3.56066C17.2794 3.84196 16.8978 4 16.5 4H10.5Z" fill="white"/>
</svg>
