<svg width="36" height="36" viewBox="0 0 36 36" fill="none" xmlns="http://www.w3.org/2000/svg">
<path d="M23.2309 19.3182C29.7309 19.3182 35.0001 16.9779 35.0001 14.091C35.0001 11.2041 29.7309 8.86377 23.2309 8.86377C16.7309 8.86377 11.4617 11.2041 11.4617 14.091C11.4617 16.9779 16.7309 19.3182 23.2309 19.3182Z" stroke="white" stroke-width="2" stroke-linecap="round" stroke-linejoin="round"/>
<path d="M11.4617 14.0911V29.7728C11.4617 32.6478 16.6924 35 23.2309 35C29.7694 35 35.0001 32.6478 35.0001 29.7728V14.0911" stroke="white" stroke-width="2" stroke-linecap="round" stroke-linejoin="round"/>
<path d="M35 21.9319C35 24.8069 29.7692 27.1591 23.2308 27.1591C16.6923 27.1591 11.4615 24.8069 11.4615 21.9319M22.9692 3.63656C19.9131 1.75181 16.3558 0.840288 12.7692 1.02294C6.25692 1.02294 1 3.3752 1 6.25018C1 7.79221 2.51692 9.17743 4.92308 10.1706" stroke="white" stroke-width="2" stroke-linecap="round" stroke-linejoin="round"/>
<path d="M4.92308 25.8523C2.51692 24.8591 1 23.4739 1 21.9318V6.25012" stroke="white" stroke-width="2" stroke-linecap="round" stroke-linejoin="round"/>
<path d="M4.92308 18.0115C2.51692 17.0183 1 15.6331 1 14.0911" stroke="white" stroke-width="2" stroke-linecap="round" stroke-linejoin="round"/>
</svg>
