<svg width="22" height="22" viewBox="0 0 22 22" fill="none" xmlns="http://www.w3.org/2000/svg">
<path d="M5 8.99989V6.99989C5 6.65989 5.028 6.32489 5.083 5.99989M17 8.99989V6.99989C17.0001 5.78113 16.629 4.59124 15.9361 3.58858C15.2433 2.58592 14.2615 1.81802 13.1215 1.38709C11.9815 0.956161 10.7372 0.882624 9.55437 1.17627C8.37152 1.46991 7.30613 2.11682 6.5 3.03089M10 20.9999H7C4.172 20.9999 2.757 20.9999 1.879 20.1209C1 19.2429 1 17.8279 1 14.9999C1 12.1719 1 10.7569 1.879 9.87889C2.757 8.99989 4.172 8.99989 7 8.99989H15C17.828 8.99989 19.243 8.99989 20.121 9.87889C21 10.7569 21 12.1719 21 14.9999C21 17.8279 21 19.2429 20.121 20.1209C19.243 20.9999 17.828 20.9999 15 20.9999H14" stroke="white" stroke-width="2" stroke-linecap="round"/>
</svg>
