<svg width="30" height="24" viewBox="0 0 30 24" fill="none" xmlns="http://www.w3.org/2000/svg">
<path d="M28.9398 13.1783C29.2522 12.8658 29.4277 12.4419 29.4277 12C29.4277 11.5581 29.2522 11.1342 28.9398 10.8217L19.5114 1.39334C19.3577 1.23415 19.1738 1.10718 18.9704 1.01983C18.7671 0.932485 18.5484 0.886507 18.3271 0.884584C18.1058 0.882661 17.8863 0.924831 17.6815 1.00863C17.4767 1.09243 17.2906 1.21619 17.1341 1.37268C16.9776 1.52917 16.8539 1.71525 16.7701 1.92008C16.6863 2.12491 16.6441 2.34437 16.646 2.56567C16.6479 2.78697 16.6939 3.00567 16.7813 3.20901C16.8686 3.41235 16.9956 3.59626 17.1548 3.75L23.7381 10.3333L1.66643 10.3333C1.2244 10.3333 0.800472 10.5089 0.487913 10.8215C0.175352 11.1341 -0.000242233 11.558 -0.000242233 12C-0.000242233 12.442 0.175352 12.866 0.487913 13.1785C0.800472 13.4911 1.2244 13.6667 1.66643 13.6667L23.7381 13.6667L17.1548 20.25C16.8512 20.5643 16.6832 20.9853 16.687 21.4223C16.6908 21.8593 16.866 22.2774 17.1751 22.5864C17.4841 22.8954 17.9021 23.0707 18.3391 23.0745C18.7761 23.0783 19.1971 22.9103 19.5114 22.6067L28.9398 13.1783Z" fill="white"/>
</svg>
