<svg width="30" height="24" viewBox="0 0 30 24" fill="none" xmlns="http://www.w3.org/2000/svg">
<path d="M1.06024 10.8217C0.747791 11.1342 0.572266 11.5581 0.572266 12C0.572266 12.4419 0.747791 12.8658 1.06024 13.1783L10.4886 22.6067C10.6423 22.7658 10.8262 22.8928 11.0296 22.9802C11.2329 23.0675 11.4516 23.1135 11.6729 23.1154C11.8942 23.1173 12.1137 23.0752 12.3185 22.9914C12.5233 22.9076 12.7094 22.7838 12.8659 22.6273C13.0224 22.4708 13.1461 22.2847 13.2299 22.0799C13.3137 21.8751 13.3559 21.6556 13.354 21.4343C13.3521 21.213 13.3061 20.9943 13.2187 20.791C13.1314 20.5877 13.0044 20.4037 12.8452 20.25L6.26191 13.6667L28.3336 13.6667C28.7756 13.6667 29.1995 13.4911 29.5121 13.1785C29.8246 12.8659 30.0002 12.442 30.0002 12C30.0002 11.558 29.8246 11.134 29.5121 10.8215C29.1995 10.5089 28.7756 10.3333 28.3336 10.3333L6.26191 10.3333L12.8452 3.75C13.1488 3.43566 13.3168 3.01466 13.313 2.57766C13.3092 2.14067 13.134 1.72265 12.8249 1.41363C12.5159 1.10462 12.0979 0.929337 11.6609 0.925539C11.2239 0.921741 10.8029 1.08973 10.4886 1.39333L1.06024 10.8217Z" fill="white"/>
</svg>
