<svg width="24" height="28" viewBox="0 0 24 28" fill="none" xmlns="http://www.w3.org/2000/svg">
<path d="M8.25 14C8.91304 14 9.54893 13.7366 10.0178 13.2678C10.4866 12.7989 10.75 12.163 10.75 11.5C10.75 10.837 10.4866 10.2011 10.0178 9.73223C9.54893 9.26339 8.91304 9 8.25 9C7.58696 9 6.95107 9.26339 6.48223 9.73223C6.01339 10.2011 5.75 10.837 5.75 11.5C5.75 12.163 6.01339 12.7989 6.48223 13.2678C6.95107 13.7366 7.58696 14 8.25 14ZM23.875 7.125L12 0.25L0.125 7.125V20.875L12 27.75L23.875 20.875V7.125ZM12 3.13875L21.375 8.56625V17.1663L15.6725 13.7463L5.70875 21.2188L2.625 19.4338V8.56625L12 3.13875ZM12 24.8612L8.06 22.58L15.8275 16.755L20.825 19.7525L12 24.8612Z" fill="url(#paint0_linear_13_544)"/>
<defs>
<linearGradient id="paint0_linear_13_544" x1="12" y1="0.25" x2="12" y2="27.75" gradientUnits="userSpaceOnUse">
<stop stop-color="#80E96F"/>
<stop offset="1" stop-color="#35AFF4"/>
</linearGradient>
</defs>
</svg>
