<svg width="38" height="40" viewBox="0 0 38 40" fill="none" xmlns="http://www.w3.org/2000/svg">
<path d="M2.54282 18.6857L35.4 3.74287M35.4 3.74287L29.2571 1.42859M35.4 3.74287L33.1143 9.88573M36.8571 38.6H29.7143V18.6C29.7143 18.2211 29.8648 17.8578 30.1327 17.5899C30.4006 17.322 30.7639 17.1714 31.1428 17.1714H35.4285C35.8074 17.1714 36.1708 17.322 36.4387 17.5899C36.7066 17.8578 36.8571 18.2211 36.8571 18.6V38.6ZM22.5714 38.6H15.4285V22.8857C15.4285 22.5069 15.579 22.1435 15.847 21.8756C16.1149 21.6077 16.4782 21.4572 16.8571 21.4572H21.1428C21.5217 21.4572 21.8851 21.6077 22.153 21.8756C22.4209 22.1435 22.5714 22.5069 22.5714 22.8857V38.6ZM8.28568 38.6H1.14282V27.1714C1.14282 26.7926 1.29333 26.4292 1.56124 26.1613C1.82915 25.8934 2.19251 25.7429 2.57139 25.7429H6.85711C7.23599 25.7429 7.59935 25.8934 7.86726 26.1613C8.13517 26.4292 8.28568 26.7926 8.28568 27.1714V38.6Z" stroke="white" stroke-width="2" stroke-linecap="round" stroke-linejoin="round"/>
</svg>
