<svg width="29" height="29" viewBox="0 0 29 29" fill="none" xmlns="http://www.w3.org/2000/svg">
<path d="M28.8124 27.3102L20.7884 19.2862C22.7166 16.9713 23.6782 14.0022 23.473 10.9964C23.2678 7.99069 21.9117 5.17976 19.6869 3.14839C17.462 1.11702 14.5396 0.0216229 11.5276 0.0900602C8.51566 0.158498 5.64603 1.3855 3.51571 3.51583C1.38538 5.64616 0.158375 8.51578 0.0899381 11.5277C0.0215008 14.5397 1.1169 17.4621 3.14827 19.687C5.17964 21.9119 7.99057 23.2679 10.9963 23.4731C14.002 23.6783 16.9712 22.7167 19.286 20.7885L27.31 28.8125L28.8124 27.3102ZM2.24991 11.8125C2.24991 9.92125 2.81074 8.07244 3.86148 6.49989C4.91222 4.92735 6.40568 3.7017 8.153 2.97793C9.90032 2.25417 11.823 2.0648 13.678 2.43377C15.5329 2.80274 17.2368 3.71348 18.5741 5.05082C19.9115 6.38816 20.8222 8.09204 21.1912 9.94698C21.5601 11.8019 21.3708 13.7246 20.647 15.4719C19.9232 17.2193 18.6976 18.7127 17.125 19.7635C15.5525 20.8142 13.7037 21.375 11.8124 21.375C9.27714 21.3722 6.84651 20.3638 5.05381 18.5711C3.2611 16.7784 2.25272 14.3478 2.24991 11.8125Z" fill="white"/>
</svg>
