<svg width="34" height="36" viewBox="0 0 34 36" fill="none" xmlns="http://www.w3.org/2000/svg">
<path d="M13.2877 14.2877C14.2723 13.3031 15.6076 12.75 17 12.75C18.3924 12.75 19.7277 13.3031 20.7123 14.2877C21.6969 15.2723 22.25 16.6076 22.25 18C22.25 19.3924 21.6969 20.7277 20.7123 21.7123C19.7277 22.6969 18.3924 23.25 17 23.25C15.6076 23.25 14.2723 22.6969 13.2877 21.7123C12.3031 20.7277 11.75 19.3924 11.75 18C11.75 16.6076 12.3031 15.2723 13.2877 14.2877ZM13.6412 14.6412C12.7504 15.532 12.25 16.7402 12.25 18C12.25 19.2598 12.7504 20.468 13.6412 21.3588C14.532 22.2496 15.7402 22.75 17 22.75C18.2598 22.75 19.468 22.2496 20.3588 21.3588C21.2496 20.468 21.75 19.2598 21.75 18C21.75 16.7402 21.2496 15.532 20.3588 14.6412C19.468 13.7504 18.2598 13.25 17 13.25C15.7402 13.25 14.532 13.7504 13.6412 14.6412Z" stroke="#DADADA" stroke-width="2"/>
<mask id="path-2-inside-1_13_454" fill="white">
<path fill-rule="evenodd" clip-rule="evenodd" d="M16.9584 0.083374C16.2167 0.083374 15.5984 0.083374 15.0917 0.116707C14.5738 0.138274 14.063 0.24527 13.58 0.433374C13.0238 0.663523 12.5183 1.001 12.0925 1.42652C11.6667 1.85204 11.3289 2.35728 11.0984 2.91337C10.8567 3.49671 10.7917 4.11337 10.765 4.78337C10.7624 5.02841 10.6975 5.26875 10.5765 5.48185C10.4555 5.69495 10.2824 5.87383 10.0734 6.00171C9.85817 6.11921 9.61664 6.18009 9.37146 6.17864C9.12627 6.17718 8.88548 6.11343 8.6717 5.99337C8.07837 5.68004 7.5117 5.42837 6.88503 5.34504C6.28827 5.26655 5.6819 5.30636 5.10052 5.46221C4.51915 5.61806 3.97417 5.8869 3.4967 6.25337C3.09299 6.57817 2.74556 6.96727 2.46836 7.40504C2.18503 7.82837 1.87503 8.36337 1.50503 9.00504L1.46336 9.07837C1.0917 9.72004 0.783365 10.255 0.560032 10.7117C0.326698 11.1884 0.143365 11.6584 0.0766982 12.1784C-0.0823013 13.3834 0.243831 14.6022 0.983365 15.5667C1.36837 16.0684 1.87003 16.4334 2.4367 16.79C2.64796 16.9149 2.82398 17.0915 2.94819 17.3032C3.0724 17.5149 3.14071 17.7547 3.1467 18C3.14071 18.2454 3.0724 18.4852 2.94819 18.6969C2.82398 18.9085 2.64796 19.0851 2.4367 19.21C1.87003 19.5667 1.37003 19.9317 0.983365 20.4334C0.616893 20.9108 0.348056 21.4558 0.192203 22.0372C0.0363511 22.6186 -0.00346386 23.2249 0.0750317 23.8217C0.143365 24.3417 0.325032 24.8117 0.558365 25.2884C0.783365 25.745 1.0917 26.28 1.46336 26.9217L1.50503 26.995C1.87503 27.6367 2.18503 28.1717 2.46836 28.595C2.76336 29.0334 3.08003 29.4284 3.4967 29.745C3.97405 30.1118 4.51897 30.3809 5.10035 30.5371C5.68172 30.6932 6.28816 30.7333 6.88503 30.655C7.5117 30.5717 8.07837 30.3217 8.6717 30.0067C8.88523 29.8868 9.12573 29.8231 9.37062 29.8217C9.61551 29.8202 9.85676 29.881 10.0717 29.9984C10.2819 30.1252 10.4561 30.3038 10.5778 30.5171C10.6994 30.7303 10.7645 30.9712 10.7667 31.2167C10.7917 31.8867 10.8567 32.5034 11.1 33.0867C11.3302 33.643 11.6677 34.1484 12.0932 34.5742C12.5187 35 13.0239 35.3379 13.58 35.5684C14.0634 35.7684 14.5634 35.8467 15.0917 35.8817C15.5984 35.9167 16.2167 35.9167 16.9584 35.9167H17.0417C17.7834 35.9167 18.4017 35.9167 18.9084 35.8834C19.4384 35.8467 19.9367 35.7684 20.42 35.5667C20.9763 35.3366 21.4817 34.9991 21.9076 34.5736C22.3334 34.148 22.6712 33.6428 22.9017 33.0867C23.1434 32.5034 23.2084 31.8867 23.235 31.2167C23.2374 30.9714 23.3022 30.7307 23.4231 30.5173C23.5441 30.3039 23.7174 30.1247 23.9267 29.9967C24.142 29.8795 24.3836 29.8189 24.6288 29.8206C24.874 29.8224 25.1147 29.8864 25.3284 30.0067C25.9217 30.32 26.4884 30.5717 27.115 30.6534C28.32 30.8124 29.5388 30.4862 30.5034 29.7467C30.92 29.4267 31.2367 29.0334 31.5317 28.595C31.815 28.1717 32.125 27.6367 32.495 26.995L32.5367 26.9217C32.9084 26.28 33.2167 25.745 33.44 25.2884C33.6734 24.8117 33.8567 24.34 33.9234 23.8217C34.0824 22.6167 33.7562 21.3979 33.0167 20.4334C32.6317 19.9317 32.13 19.5667 31.5634 19.21C31.3521 19.0851 31.1761 18.9085 31.0519 18.6969C30.9277 18.4852 30.8594 18.2454 30.8534 18C30.8534 17.5367 31.1067 17.0767 31.5634 16.79C32.13 16.4334 32.63 16.0684 33.0167 15.5667C33.3832 15.0892 33.652 14.5443 33.8079 13.9629C33.9637 13.3815 34.0035 12.7751 33.925 12.1784C33.8457 11.6662 33.6824 11.1707 33.4417 10.7117C33.1572 10.158 32.8553 9.61324 32.5367 9.07837L32.495 9.00504C32.1906 8.46185 31.8693 7.92826 31.5317 7.40504C31.2545 6.96774 30.9071 6.57918 30.5034 6.25504C30.026 5.88828 29.4811 5.61914 28.8997 5.463C28.3183 5.30686 27.7119 5.26678 27.115 5.34504C26.4884 5.42837 25.9217 5.67837 25.3284 5.99337C25.1148 6.11313 24.8743 6.17672 24.6294 6.17818C24.3846 6.17963 24.1434 6.11891 23.9284 6.00171C23.7187 5.87424 23.5449 5.69553 23.4233 5.4824C23.3018 5.26927 23.2364 5.02872 23.2334 4.78337C23.2084 4.11337 23.1434 3.49671 22.9 2.91337C22.6699 2.35712 22.3324 1.85166 21.9069 1.42585C21.4814 1.00004 20.9761 0.66223 20.42 0.431707C19.9367 0.231707 19.4367 0.153374 18.9084 0.118374C18.4017 0.0833741 17.7834 0.083374 17.0417 0.083374H16.9584ZM14.5367 2.74171C14.665 2.68837 14.86 2.64004 15.2617 2.61171C15.6734 2.58337 16.2067 2.58337 17 2.58337C17.7934 2.58337 18.3267 2.58337 18.7384 2.61171C19.14 2.64004 19.335 2.68837 19.4634 2.74171C19.975 2.95337 20.38 3.35837 20.5917 3.87004C20.6584 4.03004 20.7134 4.28171 20.735 4.87671C20.785 6.19671 21.4667 7.46837 22.6767 8.16671C23.8867 8.86671 25.3284 8.82004 26.4967 8.20337C27.0234 7.92504 27.2684 7.84671 27.4417 7.82504C27.9893 7.75268 28.5432 7.90076 28.9817 8.23671C29.0917 8.32171 29.2317 8.46671 29.4567 8.80004C29.6884 9.14337 29.955 9.60504 30.3517 10.2917C30.7484 10.9784 31.0134 11.4417 31.195 11.8117C31.3734 12.1734 31.4284 12.3667 31.445 12.505C31.5174 13.0526 31.3693 13.6066 31.0334 14.045C30.9267 14.1834 30.7367 14.3567 30.2334 14.6734C29.1134 15.3767 28.3534 16.6034 28.3534 18C28.3534 19.3967 29.1134 20.6234 30.2334 21.3267C30.7367 21.6434 30.9267 21.8167 31.0334 21.955C31.37 22.3934 31.5167 22.9467 31.445 23.495C31.4284 23.6334 31.3717 23.8284 31.195 24.1884C31.0134 24.56 30.7484 25.0217 30.3517 25.7084C29.955 26.395 29.6867 26.8567 29.4567 27.2C29.2317 27.5334 29.0917 27.6784 28.9817 27.7634C28.5432 28.0993 27.9893 28.2474 27.4417 28.175C27.2684 28.1534 27.025 28.075 26.4967 27.7967C25.33 27.18 23.8867 27.1334 22.6767 27.8317C21.4667 28.5317 20.785 29.8034 20.735 31.1234C20.7134 31.7184 20.6584 31.97 20.5917 32.13C20.487 32.383 20.3335 32.6129 20.1398 32.8065C19.9462 33.0001 19.7164 33.1537 19.4634 33.2584C19.335 33.3117 19.14 33.36 18.7384 33.3884C18.3267 33.4167 17.7934 33.4167 17 33.4167C16.2067 33.4167 15.6734 33.4167 15.2617 33.3884C14.86 33.36 14.665 33.3117 14.5367 33.2584C14.2837 33.1537 14.0538 33.0001 13.8602 32.8065C13.6666 32.6129 13.5131 32.383 13.4084 32.13C13.3417 31.97 13.2867 31.7184 13.265 31.1234C13.215 29.8034 12.5334 28.5317 11.3234 27.8334C10.1134 27.1334 8.6717 27.18 7.50337 27.7967C6.9767 28.075 6.7317 28.1534 6.55837 28.175C6.01076 28.2474 5.45683 28.0993 5.01836 27.7634C4.90837 27.6784 4.76837 27.5334 4.54337 27.2C4.22988 26.7121 3.93141 26.2146 3.64837 25.7084C3.2517 25.0217 2.9867 24.5584 2.80503 24.1884C2.6267 23.8267 2.5717 23.6334 2.55503 23.495C2.48267 22.9474 2.63075 22.3935 2.9667 21.955C3.07336 21.8167 3.26337 21.6434 3.7667 21.3267C4.8867 20.6234 5.6467 19.3967 5.6467 18C5.6467 16.6034 4.8867 15.3767 3.7667 14.6734C3.26337 14.3567 3.07336 14.1834 2.9667 14.045C2.63075 13.6066 2.48267 13.0526 2.55503 12.505C2.5717 12.3667 2.62837 12.1717 2.80503 11.8117C2.9867 11.44 3.2517 10.9784 3.64837 10.2917C4.04503 9.60504 4.31337 9.14337 4.54337 8.80004C4.76837 8.46671 4.90837 8.32171 5.01836 8.23671C5.45683 7.90076 6.01076 7.75268 6.55837 7.82504C6.7317 7.84671 6.97503 7.92504 7.50337 8.20337C8.67003 8.82004 10.1134 8.86671 11.3234 8.16671C12.5334 7.46837 13.215 6.19671 13.265 4.87671C13.2867 4.28171 13.3417 4.03004 13.4084 3.87004C13.62 3.35837 14.025 2.95337 14.5367 2.74171Z"/>
</mask>
<path fill-rule="evenodd" clip-rule="evenodd" d="M16.9584 0.083374C16.2167 0.083374 15.5984 0.083374 15.0917 0.116707C14.5738 0.138274 14.063 0.24527 13.58 0.433374C13.0238 0.663523 12.5183 1.001 12.0925 1.42652C11.6667 1.85204 11.3289 2.35728 11.0984 2.91337C10.8567 3.49671 10.7917 4.11337 10.765 4.78337C10.7624 5.02841 10.6975 5.26875 10.5765 5.48185C10.4555 5.69495 10.2824 5.87383 10.0734 6.00171C9.85817 6.11921 9.61664 6.18009 9.37146 6.17864C9.12627 6.17718 8.88548 6.11343 8.6717 5.99337C8.07837 5.68004 7.5117 5.42837 6.88503 5.34504C6.28827 5.26655 5.6819 5.30636 5.10052 5.46221C4.51915 5.61806 3.97417 5.8869 3.4967 6.25337C3.09299 6.57817 2.74556 6.96727 2.46836 7.40504C2.18503 7.82837 1.87503 8.36337 1.50503 9.00504L1.46336 9.07837C1.0917 9.72004 0.783365 10.255 0.560032 10.7117C0.326698 11.1884 0.143365 11.6584 0.0766982 12.1784C-0.0823013 13.3834 0.243831 14.6022 0.983365 15.5667C1.36837 16.0684 1.87003 16.4334 2.4367 16.79C2.64796 16.9149 2.82398 17.0915 2.94819 17.3032C3.0724 17.5149 3.14071 17.7547 3.1467 18C3.14071 18.2454 3.0724 18.4852 2.94819 18.6969C2.82398 18.9085 2.64796 19.0851 2.4367 19.21C1.87003 19.5667 1.37003 19.9317 0.983365 20.4334C0.616893 20.9108 0.348056 21.4558 0.192203 22.0372C0.0363511 22.6186 -0.00346386 23.2249 0.0750317 23.8217C0.143365 24.3417 0.325032 24.8117 0.558365 25.2884C0.783365 25.745 1.0917 26.28 1.46336 26.9217L1.50503 26.995C1.87503 27.6367 2.18503 28.1717 2.46836 28.595C2.76336 29.0334 3.08003 29.4284 3.4967 29.745C3.97405 30.1118 4.51897 30.3809 5.10035 30.5371C5.68172 30.6932 6.28816 30.7333 6.88503 30.655C7.5117 30.5717 8.07837 30.3217 8.6717 30.0067C8.88523 29.8868 9.12573 29.8231 9.37062 29.8217C9.61551 29.8202 9.85676 29.881 10.0717 29.9984C10.2819 30.1252 10.4561 30.3038 10.5778 30.5171C10.6994 30.7303 10.7645 30.9712 10.7667 31.2167C10.7917 31.8867 10.8567 32.5034 11.1 33.0867C11.3302 33.643 11.6677 34.1484 12.0932 34.5742C12.5187 35 13.0239 35.3379 13.58 35.5684C14.0634 35.7684 14.5634 35.8467 15.0917 35.8817C15.5984 35.9167 16.2167 35.9167 16.9584 35.9167H17.0417C17.7834 35.9167 18.4017 35.9167 18.9084 35.8834C19.4384 35.8467 19.9367 35.7684 20.42 35.5667C20.9763 35.3366 21.4817 34.9991 21.9076 34.5736C22.3334 34.148 22.6712 33.6428 22.9017 33.0867C23.1434 32.5034 23.2084 31.8867 23.235 31.2167C23.2374 30.9714 23.3022 30.7307 23.4231 30.5173C23.5441 30.3039 23.7174 30.1247 23.9267 29.9967C24.142 29.8795 24.3836 29.8189 24.6288 29.8206C24.874 29.8224 25.1147 29.8864 25.3284 30.0067C25.9217 30.32 26.4884 30.5717 27.115 30.6534C28.32 30.8124 29.5388 30.4862 30.5034 29.7467C30.92 29.4267 31.2367 29.0334 31.5317 28.595C31.815 28.1717 32.125 27.6367 32.495 26.995L32.5367 26.9217C32.9084 26.28 33.2167 25.745 33.44 25.2884C33.6734 24.8117 33.8567 24.34 33.9234 23.8217C34.0824 22.6167 33.7562 21.3979 33.0167 20.4334C32.6317 19.9317 32.13 19.5667 31.5634 19.21C31.3521 19.0851 31.1761 18.9085 31.0519 18.6969C30.9277 18.4852 30.8594 18.2454 30.8534 18C30.8534 17.5367 31.1067 17.0767 31.5634 16.79C32.13 16.4334 32.63 16.0684 33.0167 15.5667C33.3832 15.0892 33.652 14.5443 33.8079 13.9629C33.9637 13.3815 34.0035 12.7751 33.925 12.1784C33.8457 11.6662 33.6824 11.1707 33.4417 10.7117C33.1572 10.158 32.8553 9.61324 32.5367 9.07837L32.495 9.00504C32.1906 8.46185 31.8693 7.92826 31.5317 7.40504C31.2545 6.96774 30.9071 6.57918 30.5034 6.25504C30.026 5.88828 29.4811 5.61914 28.8997 5.463C28.3183 5.30686 27.7119 5.26678 27.115 5.34504C26.4884 5.42837 25.9217 5.67837 25.3284 5.99337C25.1148 6.11313 24.8743 6.17672 24.6294 6.17818C24.3846 6.17963 24.1434 6.11891 23.9284 6.00171C23.7187 5.87424 23.5449 5.69553 23.4233 5.4824C23.3018 5.26927 23.2364 5.02872 23.2334 4.78337C23.2084 4.11337 23.1434 3.49671 22.9 2.91337C22.6699 2.35712 22.3324 1.85166 21.9069 1.42585C21.4814 1.00004 20.9761 0.66223 20.42 0.431707C19.9367 0.231707 19.4367 0.153374 18.9084 0.118374C18.4017 0.0833741 17.7834 0.083374 17.0417 0.083374H16.9584ZM14.5367 2.74171C14.665 2.68837 14.86 2.64004 15.2617 2.61171C15.6734 2.58337 16.2067 2.58337 17 2.58337C17.7934 2.58337 18.3267 2.58337 18.7384 2.61171C19.14 2.64004 19.335 2.68837 19.4634 2.74171C19.975 2.95337 20.38 3.35837 20.5917 3.87004C20.6584 4.03004 20.7134 4.28171 20.735 4.87671C20.785 6.19671 21.4667 7.46837 22.6767 8.16671C23.8867 8.86671 25.3284 8.82004 26.4967 8.20337C27.0234 7.92504 27.2684 7.84671 27.4417 7.82504C27.9893 7.75268 28.5432 7.90076 28.9817 8.23671C29.0917 8.32171 29.2317 8.46671 29.4567 8.80004C29.6884 9.14337 29.955 9.60504 30.3517 10.2917C30.7484 10.9784 31.0134 11.4417 31.195 11.8117C31.3734 12.1734 31.4284 12.3667 31.445 12.505C31.5174 13.0526 31.3693 13.6066 31.0334 14.045C30.9267 14.1834 30.7367 14.3567 30.2334 14.6734C29.1134 15.3767 28.3534 16.6034 28.3534 18C28.3534 19.3967 29.1134 20.6234 30.2334 21.3267C30.7367 21.6434 30.9267 21.8167 31.0334 21.955C31.37 22.3934 31.5167 22.9467 31.445 23.495C31.4284 23.6334 31.3717 23.8284 31.195 24.1884C31.0134 24.56 30.7484 25.0217 30.3517 25.7084C29.955 26.395 29.6867 26.8567 29.4567 27.2C29.2317 27.5334 29.0917 27.6784 28.9817 27.7634C28.5432 28.0993 27.9893 28.2474 27.4417 28.175C27.2684 28.1534 27.025 28.075 26.4967 27.7967C25.33 27.18 23.8867 27.1334 22.6767 27.8317C21.4667 28.5317 20.785 29.8034 20.735 31.1234C20.7134 31.7184 20.6584 31.97 20.5917 32.13C20.487 32.383 20.3335 32.6129 20.1398 32.8065C19.9462 33.0001 19.7164 33.1537 19.4634 33.2584C19.335 33.3117 19.14 33.36 18.7384 33.3884C18.3267 33.4167 17.7934 33.4167 17 33.4167C16.2067 33.4167 15.6734 33.4167 15.2617 33.3884C14.86 33.36 14.665 33.3117 14.5367 33.2584C14.2837 33.1537 14.0538 33.0001 13.8602 32.8065C13.6666 32.6129 13.5131 32.383 13.4084 32.13C13.3417 31.97 13.2867 31.7184 13.265 31.1234C13.215 29.8034 12.5334 28.5317 11.3234 27.8334C10.1134 27.1334 8.6717 27.18 7.50337 27.7967C6.9767 28.075 6.7317 28.1534 6.55837 28.175C6.01076 28.2474 5.45683 28.0993 5.01836 27.7634C4.90837 27.6784 4.76837 27.5334 4.54337 27.2C4.22988 26.7121 3.93141 26.2146 3.64837 25.7084C3.2517 25.0217 2.9867 24.5584 2.80503 24.1884C2.6267 23.8267 2.5717 23.6334 2.55503 23.495C2.48267 22.9474 2.63075 22.3935 2.9667 21.955C3.07336 21.8167 3.26337 21.6434 3.7667 21.3267C4.8867 20.6234 5.6467 19.3967 5.6467 18C5.6467 16.6034 4.8867 15.3767 3.7667 14.6734C3.26337 14.3567 3.07336 14.1834 2.9667 14.045C2.63075 13.6066 2.48267 13.0526 2.55503 12.505C2.5717 12.3667 2.62837 12.1717 2.80503 11.8117C2.9867 11.44 3.2517 10.9784 3.64837 10.2917C4.04503 9.60504 4.31337 9.14337 4.54337 8.80004C4.76837 8.46671 4.90837 8.32171 5.01836 8.23671C5.45683 7.90076 6.01076 7.75268 6.55837 7.82504C6.7317 7.84671 6.97503 7.92504 7.50337 8.20337C8.67003 8.82004 10.1134 8.86671 11.3234 8.16671C12.5334 7.46837 13.215 6.19671 13.265 4.87671C13.2867 4.28171 13.3417 4.03004 13.4084 3.87004C13.62 3.35837 14.025 2.95337 14.5367 2.74171Z" stroke="#DADADA" stroke-width="4" mask="url(#path-2-inside-1_13_454)"/>
</svg>
