<svg width="20" height="20" viewBox="0 0 20 20" fill="none" xmlns="http://www.w3.org/2000/svg">
<g clip-path="url(#clip0_26_2309)">
<path d="M10 20C15.5228 20 20 15.5228 20 10C20 4.47715 15.5228 0 10 0C4.47715 0 0 4.47715 0 10C0 15.5228 4.47715 20 10 20Z" fill="#3E73C4"/>
<path d="M12.513 11.3275C12.513 9.99997 11.713 9.54497 10.113 9.35497C8.97049 9.2031 8.74237 8.89997 8.74237 8.36872C8.74237 7.83747 9.12362 7.49622 9.88487 7.49622C10.5705 7.49622 10.9517 7.72372 11.1417 8.2931C11.1615 8.34815 11.1977 8.39582 11.2455 8.42968C11.2932 8.46354 11.3501 8.48196 11.4086 8.48247H12.018C12.0532 8.48341 12.0882 8.47719 12.1209 8.46419C12.1537 8.45119 12.1834 8.43168 12.2083 8.40684C12.2333 8.38201 12.253 8.35236 12.2661 8.3197C12.2793 8.28704 12.2856 8.25205 12.2849 8.21685V8.17935C12.2104 7.76741 12.002 7.3916 11.692 7.1103C11.3819 6.82899 10.9877 6.65794 10.5705 6.62372V5.71372C10.5705 5.56185 10.4561 5.4481 10.2661 5.40997H9.69424C9.54237 5.40997 9.42799 5.52372 9.38987 5.71372V6.58622C8.24674 6.73747 7.52362 7.49622 7.52362 8.44497C7.52362 9.69622 8.28487 10.1893 9.88487 10.3793C10.9517 10.5687 11.2942 10.7968 11.2942 11.4037C11.2942 12.01 10.7611 12.4275 10.0374 12.4275C9.04674 12.4275 8.70424 12.0106 8.58987 11.4412C8.55237 11.29 8.43737 11.2137 8.32299 11.2137H7.67549C7.64035 11.2129 7.60539 11.2192 7.57275 11.2322C7.5401 11.2452 7.51044 11.2648 7.48555 11.2896C7.46066 11.3144 7.44107 11.344 7.42795 11.3766C7.41484 11.4093 7.40847 11.4442 7.40924 11.4793V11.5168C7.56112 12.4656 8.17112 13.1481 9.42799 13.3381V14.2487C9.42799 14.4 9.54237 14.5143 9.73237 14.5518H10.3042C10.4561 14.5518 10.5705 14.4381 10.6086 14.2487V13.3375C11.7517 13.1481 12.513 12.3512 12.513 11.3268V11.3275Z" fill="white"/>
<path d="M8.05707 15.3106C5.08582 14.2481 3.56207 10.9481 4.66707 8.0275C5.23832 6.43375 6.49519 5.22062 8.05707 4.65125C8.20957 4.57562 8.28519 4.46187 8.28519 4.27188V3.74063C8.28519 3.58938 8.20957 3.47563 8.05707 3.4375C8.01894 3.4375 7.94269 3.4375 7.90457 3.475C7.04734 3.7427 6.25153 4.17733 5.56296 4.75386C4.87439 5.33039 4.30666 6.03743 3.89247 6.83427C3.47828 7.63111 3.2258 8.50201 3.14957 9.39683C3.07335 10.2916 3.17488 11.1927 3.44832 12.0481C4.13332 14.1731 5.77144 15.8044 7.90457 16.4869C8.05707 16.5625 8.20957 16.4869 8.24707 16.335C8.28519 16.2975 8.28519 16.2587 8.28519 16.1831V15.6519C8.28519 15.5381 8.17144 15.3869 8.05707 15.3106ZM12.0946 3.47562C11.9421 3.39937 11.7896 3.47562 11.7521 3.62687C11.7139 3.665 11.7139 3.70312 11.7139 3.77875V4.31C11.7139 4.46187 11.8277 4.61312 11.9421 4.68937C14.9133 5.75187 16.4371 9.05188 15.3321 11.9725C14.7608 13.5662 13.5039 14.7794 11.9421 15.3488C11.7896 15.4244 11.7139 15.5381 11.7139 15.7281V16.2594C11.7139 16.4106 11.7896 16.5244 11.9421 16.5625C11.9802 16.5625 12.0564 16.5625 12.0946 16.525C12.9518 16.2573 13.7476 15.8227 14.4362 15.2461C15.1247 14.6696 15.6925 13.9626 16.1067 13.1657C16.5209 12.3689 16.7733 11.498 16.8496 10.6032C16.9258 9.70835 16.8243 8.80729 16.5508 7.95187C15.8658 5.78937 14.1896 4.15812 12.0946 3.47562Z" fill="white"/>
</g>
<defs>
<clipPath id="clip0_26_2309">
<rect width="20" height="20" fill="white"/>
</clipPath>
</defs>
</svg>
